<?xml version="1.0" standalone="no"?>
<!DOCTYPE svg PUBLIC "-//W3C//DTD SVG 20010904//EN"
 "http://www.w3.org/TR/2001/REC-SVG-20010904/DTD/svg10.dtd">
<svg version="1.0" xmlns="http://www.w3.org/2000/svg"
 width="2000.000000pt" height="2000.000000pt" viewBox="0 0 2000.000000 2000.000000"
 preserveAspectRatio="xMidYMid meet">
<metadata>
Created by potrace 1.14, written by Peter Selinger 2001-2017
</metadata>
<g transform="translate(0.000000,2000.000000) scale(0.100000,-0.100000)"
fill="#000000" stroke="none">
<path d="M17790 19345 c-1 -5 -2 -12 -2 -15 0 -3 -16 -6 -36 -8 -55 -3 -62 -5
-62 -13 0 -4 -13 -6 -30 -4 -16 2 -30 0 -30 -5 0 -6 -3 -9 -7 -9 -5 1 -25 1
-46 0 -26 -1 -36 -5 -31 -13 5 -8 2 -9 -9 -5 -10 3 -17 3 -17 -2 0 -4 -11 -6
-25 -3 -15 2 -25 0 -25 -7 0 -6 -10 -9 -22 -8 -12 2 -33 -2 -46 -9 -13 -7 -35
-10 -49 -8 -14 3 -22 1 -19 -5 5 -8 -26 -17 -82 -24 -13 -2 -27 -9 -32 -17 -8
-13 -10 -13 -10 0 0 12 -2 13 -9 1 -5 -7 -14 -11 -19 -7 -6 4 -19 2 -29 -3
-21 -11 -52 -23 -72 -27 -8 -1 -25 -5 -38 -9 -13 -3 -26 -6 -30 -6 -5 -1 -17
-6 -28 -12 -11 -6 -23 -12 -27 -13 -5 -1 -9 -2 -10 -4 -2 -1 -16 -4 -33 -6
-16 -3 -35 -9 -41 -15 -6 -5 -14 -6 -17 -2 -4 3 -7 2 -7 -4 0 -5 -7 -10 -15
-11 -8 -1 -22 -3 -30 -4 -8 -1 -15 -5 -15 -10 0 -4 -11 -8 -24 -8 -14 0 -28
-5 -31 -10 -4 -6 -10 -8 -15 -5 -5 3 -14 -1 -22 -8 -7 -7 -23 -12 -35 -11 -12
1 -20 -3 -17 -7 5 -8 -26 -14 -49 -10 -5 1 -6 -3 -2 -9 4 -6 -4 -10 -19 -10
-14 0 -26 -5 -26 -11 0 -5 -4 -8 -9 -4 -5 3 -12 1 -16 -5 -3 -5 -17 -10 -30
-10 -13 0 -25 -5 -27 -10 -2 -6 -13 -12 -26 -13 -12 0 -22 -4 -22 -8 0 -7 -50
-23 -62 -21 -5 1 -8 -3 -8 -8 0 -5 -9 -10 -20 -10 -11 0 -20 -5 -20 -12 0 -6
-3 -9 -6 -6 -3 4 -17 0 -31 -7 -15 -8 -30 -12 -35 -9 -4 3 -8 0 -8 -5 0 -6 -7
-11 -16 -11 -8 0 -13 -4 -9 -9 3 -6 -4 -8 -15 -6 -11 2 -24 -3 -30 -13 -5 -9
-10 -14 -10 -10 0 4 -13 2 -30 -3 -16 -6 -27 -15 -24 -20 3 -5 -6 -9 -20 -9
-14 0 -26 -4 -26 -10 0 -5 -9 -10 -19 -10 -11 0 -26 -7 -35 -15 -8 -8 -22 -15
-31 -15 -10 0 -13 -5 -9 -12 4 -7 3 -8 -5 -4 -6 4 -24 0 -39 -10 -36 -24 -94
-54 -105 -54 -5 0 -15 -7 -24 -15 -8 -8 -19 -13 -24 -10 -5 4 -9 1 -9 -4 0 -6
-7 -11 -15 -11 -9 0 -18 -7 -21 -15 -4 -8 -10 -13 -14 -10 -4 3 -19 -4 -32
-15 -14 -11 -28 -16 -32 -13 -3 3 -6 1 -6 -5 0 -7 -7 -12 -15 -12 -9 0 -18 -7
-22 -16 -3 -8 -11 -13 -18 -10 -7 2 -22 -4 -33 -15 -12 -10 -26 -19 -32 -19
-5 0 -10 -5 -10 -12 0 -6 -3 -8 -7 -5 -3 4 -12 -1 -20 -11 -8 -10 -11 -11 -7
-2 5 8 -9 1 -30 -17 -23 -18 -45 -29 -54 -25 -8 3 -13 1 -10 -4 3 -5 0 -15 -8
-22 -8 -7 -14 -9 -14 -5 0 4 -7 -1 -15 -11 -8 -11 -15 -14 -15 -8 0 7 -9 3
-20 -8 -12 -12 -26 -18 -33 -14 -7 4 -9 4 -5 -1 8 -9 -19 -33 -72 -63 -19 -11
-34 -25 -32 -32 1 -6 -2 -9 -7 -6 -9 6 -80 -36 -91 -54 -3 -5 -12 -10 -19 -12
-8 -2 -28 -15 -44 -30 -17 -16 -34 -28 -39 -28 -5 0 -6 -4 -3 -10 4 -6 -1 -7
-11 -3 -12 4 -15 3 -10 -5 4 -7 1 -12 -8 -12 -9 0 -16 -5 -16 -11 0 -5 -4 -8
-9 -4 -5 3 -16 -3 -23 -12 -7 -10 -22 -25 -32 -33 -18 -13 -19 -13 -11 0 5 8
-7 -1 -26 -20 -18 -19 -48 -45 -65 -58 -42 -31 -94 -73 -116 -94 -10 -10 -22
-18 -27 -18 -5 0 -12 -7 -15 -16 -3 -8 -11 -12 -17 -8 -7 4 -9 3 -6 -3 4 -6
-1 -17 -10 -24 -14 -12 -16 -12 -9 1 5 8 -3 3 -16 -12 -14 -15 -28 -24 -32
-20 -4 4 -6 1 -4 -6 2 -8 -6 -19 -17 -25 -11 -7 -27 -19 -35 -28 -8 -9 -27
-24 -42 -33 -15 -10 -26 -22 -23 -26 2 -4 -7 -12 -20 -18 -14 -7 -25 -16 -25
-22 0 -6 -4 -9 -9 -5 -5 3 -12 -3 -15 -13 -4 -10 -17 -25 -31 -32 -13 -7 -23
-16 -22 -19 3 -6 -33 -44 -46 -48 -15 -6 -45 -42 -39 -47 3 -3 0 -6 -6 -6 -14
0 -52 -36 -52 -49 0 -5 -9 -11 -21 -14 -12 -3 -18 -10 -14 -16 3 -6 2 -11 -3
-11 -5 0 -21 -11 -36 -25 -15 -14 -24 -25 -21 -25 3 0 -5 -11 -17 -24 -13 -13
-26 -21 -30 -19 -5 2 -8 -1 -8 -7 0 -12 -25 -41 -105 -122 -27 -28 -50 -54
-50 -58 0 -5 -19 -27 -43 -49 -24 -23 -40 -41 -37 -41 6 0 -29 -41 -73 -87
-19 -19 -30 -38 -26 -45 5 -8 2 -9 -9 -5 -11 4 -17 1 -17 -7 0 -7 -17 -30 -37
-52 -21 -21 -29 -32 -18 -24 11 7 5 -1 -13 -18 -20 -19 -30 -37 -26 -44 4 -7
4 -10 -1 -6 -7 7 -35 -14 -35 -28 0 -4 -11 -17 -25 -30 -14 -13 -25 -28 -25
-34 0 -5 -5 -10 -12 -10 -6 0 -8 -3 -5 -7 4 -3 -4 -16 -18 -28 -13 -13 -21
-26 -18 -29 4 -3 1 -6 -5 -6 -7 0 -12 -6 -12 -14 0 -8 -7 -16 -15 -20 -8 -3
-15 -12 -15 -21 0 -8 -7 -15 -15 -15 -8 0 -14 -3 -13 -7 3 -13 -25 -63 -34
-63 -5 0 -16 -16 -24 -35 -8 -19 -19 -35 -24 -35 -6 0 -10 -7 -10 -16 0 -8 -4
-13 -9 -9 -5 3 -15 -10 -22 -29 -7 -19 -16 -33 -20 -30 -4 2 -11 -6 -15 -18
-3 -12 -13 -28 -20 -36 -8 -7 -11 -18 -8 -24 4 -6 2 -8 -3 -5 -9 6 -21 -11
-25 -33 -1 -3 -8 -10 -17 -17 -9 -7 -12 -13 -7 -13 5 0 0 -8 -10 -17 -10 -10
-28 -35 -38 -55 -11 -21 -23 -38 -28 -38 -5 0 -7 -4 -4 -9 4 -5 2 -11 -3 -13
-5 -1 -11 -10 -13 -18 -5 -22 -22 -39 -33 -32 -5 3 -7 1 -2 -3 4 -5 0 -19 -8
-32 -9 -13 -12 -23 -8 -23 4 0 -3 -7 -15 -16 -13 -9 -21 -22 -18 -30 3 -8 1
-14 -5 -14 -5 0 -14 -11 -19 -25 -5 -14 -14 -25 -20 -25 -6 0 -9 -4 -5 -9 3
-5 -1 -16 -9 -24 -8 -8 -12 -17 -9 -21 4 -3 1 -6 -5 -6 -7 0 -12 -9 -12 -20 0
-11 -4 -20 -9 -20 -5 0 -17 -18 -27 -40 -10 -22 -21 -40 -26 -40 -4 0 -8 -9
-8 -20 0 -11 -4 -20 -10 -20 -5 0 -12 -11 -16 -25 -3 -14 -10 -25 -16 -25 -5
0 -6 -4 -3 -10 3 -5 1 -10 -4 -10 -6 0 -11 -6 -11 -14 0 -8 -6 -21 -12 -28 -7
-7 -14 -18 -15 -23 -5 -26 -41 -83 -48 -77 -5 4 -5 -1 -2 -10 3 -9 1 -18 -4
-20 -5 -2 -11 -13 -12 -25 0 -12 -5 -19 -9 -17 -4 3 -8 -1 -8 -9 0 -8 -9 -26
-20 -39 -10 -14 -17 -28 -13 -31 3 -4 -1 -9 -10 -13 -9 -3 -13 -12 -10 -21 5
-12 3 -14 -7 -8 -10 6 -12 4 -7 -7 3 -9 -4 -26 -16 -39 -12 -13 -21 -25 -19
-26 8 -10 0 -33 -12 -33 -9 0 -12 -7 -9 -20 3 -12 0 -20 -6 -20 -7 0 -10 -4
-6 -9 3 -6 -3 -14 -12 -20 -10 -6 -15 -11 -10 -11 4 0 1 -13 -8 -30 -9 -16
-13 -30 -10 -30 4 0 -1 -7 -9 -16 -9 -8 -16 -24 -16 -35 0 -10 -4 -19 -10 -19
-5 0 -10 -9 -10 -20 0 -11 -4 -20 -9 -20 -5 0 -8 -11 -7 -25 2 -13 -2 -23 -8
-22 -6 1 -10 -6 -10 -15 1 -10 -2 -18 -7 -18 -5 0 -9 -7 -9 -15 0 -8 -4 -15
-10 -15 -5 0 -10 -5 -10 -11 0 -5 4 -7 10 -4 5 3 2 -8 -8 -24 -9 -17 -20 -31
-24 -31 -4 0 -5 -6 -2 -14 3 -8 1 -17 -5 -20 -6 -4 -8 -13 -5 -20 3 -7 -2 -16
-11 -20 -9 -3 -13 -10 -10 -16 3 -5 1 -10 -5 -10 -6 0 -8 -5 -5 -10 4 -6 2
-17 -4 -24 -6 -7 -12 -22 -14 -33 -2 -12 -8 -28 -15 -35 -6 -8 -9 -18 -5 -21
3 -4 1 -7 -5 -7 -7 0 -12 -14 -12 -31 0 -20 -4 -28 -12 -23 -8 5 -9 0 -6 -14
4 -12 2 -22 -4 -22 -5 0 -6 -4 -3 -10 3 -5 2 -10 -4 -10 -5 0 -8 -9 -6 -20 2
-11 0 -18 -6 -15 -5 4 -9 -6 -9 -20 0 -14 -4 -24 -9 -21 -4 3 -8 -5 -7 -17 1
-12 -5 -28 -12 -36 -7 -7 -11 -19 -8 -27 3 -7 -1 -18 -9 -24 -8 -6 -11 -18 -8
-26 3 -8 1 -14 -4 -14 -5 0 -10 -14 -10 -31 0 -17 -6 -35 -14 -40 -8 -5 -10
-9 -4 -9 5 0 4 -5 -3 -12 -7 -7 -12 -22 -12 -35 0 -13 -4 -23 -8 -23 -4 0 -9
-14 -10 -32 -2 -18 -8 -36 -15 -40 -7 -4 -8 -8 -3 -8 5 0 3 -7 -4 -15 -7 -8
-9 -15 -5 -15 4 0 0 -12 -10 -26 -9 -15 -12 -23 -6 -20 6 4 11 2 11 -3 0 -6
-5 -11 -11 -11 -6 0 -9 -10 -8 -22 2 -13 -2 -33 -9 -45 -7 -12 -12 -31 -12
-43 0 -13 -4 -18 -11 -15 -7 5 -9 -3 -6 -23 3 -17 1 -32 -3 -34 -4 -2 -10 -16
-12 -33 -1 -16 -9 -37 -17 -47 -13 -15 -16 -14 -38 5 -58 52 -71 62 -84 65 -8
2 -19 10 -25 18 -6 7 -14 14 -18 14 -5 0 -43 30 -72 58 -7 6 -16 12 -21 12 -4
0 -19 12 -32 25 -13 14 -28 25 -33 25 -6 0 -18 8 -27 18 -9 9 -28 23 -43 31
-16 8 -28 21 -28 29 0 8 -6 12 -14 9 -8 -3 -17 1 -20 9 -3 9 -11 12 -17 8 -7
-4 -9 -3 -6 3 4 6 -12 23 -36 39 -23 16 -43 32 -45 37 -2 4 -10 7 -18 7 -8 0
-17 7 -20 15 -4 8 -13 15 -21 15 -8 0 -11 5 -8 10 3 6 0 10 -7 10 -7 0 -28 14
-45 31 -18 16 -33 26 -33 22 0 -4 -5 0 -11 10 -5 9 -17 17 -24 17 -8 0 -15 7
-15 17 0 9 -3 14 -6 10 -5 -5 -26 9 -58 39 -6 6 -23 18 -38 28 -15 10 -25 22
-22 27 3 5 2 8 -3 7 -14 -4 -53 13 -48 21 2 5 -11 17 -30 27 -19 10 -35 25
-35 33 0 8 -3 12 -6 8 -6 -6 -17 2 -59 41 -13 12 -29 22 -34 22 -6 0 -15 9
-21 21 -7 11 -14 18 -17 15 -3 -3 -14 5 -25 17 -11 12 -16 15 -12 7 4 -8 -8 2
-28 23 -19 20 -42 37 -52 37 -9 0 -14 5 -11 10 3 6 -2 13 -12 17 -10 4 -26 16
-35 28 -10 11 -17 16 -18 10 0 -5 -7 1 -16 13 -8 12 -22 22 -30 22 -8 0 -13 4
-10 8 3 5 -8 16 -25 26 -16 9 -29 21 -29 27 0 5 -6 9 -13 9 -7 0 -20 8 -28 18
-22 24 -72 62 -82 62 -4 0 -5 5 -2 10 3 6 -1 10 -10 10 -8 0 -18 7 -21 15 -4
8 -10 15 -15 15 -5 0 -25 16 -44 35 -19 19 -35 31 -35 27 0 -4 -11 4 -24 18
-13 14 -39 36 -57 50 -18 14 -48 40 -67 58 -19 17 -40 32 -47 32 -8 0 -16 8
-19 18 -3 9 -16 22 -28 27 -13 6 -22 17 -20 24 1 7 -1 10 -6 7 -4 -2 -25 11
-46 30 -20 19 -39 34 -42 34 -3 0 -21 15 -41 34 -60 56 -73 66 -84 66 -5 0 -7
5 -4 10 3 6 0 10 -7 10 -7 0 -24 14 -37 30 -13 16 -27 27 -32 24 -5 -3 -9 3
-9 12 0 10 -3 15 -6 11 -4 -3 -15 4 -25 16 -10 12 -18 18 -19 14 0 -5 -12 5
-26 22 -14 17 -31 28 -36 24 -6 -3 -8 -1 -5 4 7 11 -21 41 -32 35 -3 -2 -8 5
-12 15 -4 10 -8 14 -8 9 -1 -5 -12 3 -26 18 -14 15 -25 23 -25 19 0 -4 -5 0
-11 10 -6 10 -25 27 -42 38 -18 10 -26 19 -18 19 8 0 11 3 7 8 -7 7 -11 8 -37
11 -5 0 -7 6 -4 11 3 6 1 10 -6 10 -6 0 -22 12 -35 28 -13 15 -24 23 -24 18 0
-6 -11 5 -24 23 -16 21 -26 28 -29 19 -4 -10 -6 -9 -6 2 -1 15 -48 60 -63 60
-4 0 -8 7 -8 15 0 8 -3 15 -7 15 -14 0 -73 55 -73 68 0 7 -6 12 -14 12 -8 0
-44 29 -81 65 -36 36 -70 65 -75 65 -5 0 -12 9 -15 20 -3 11 -13 20 -21 20 -8
0 -14 5 -14 11 0 5 -5 7 -10 4 -6 -4 -9 -3 -8 2 4 11 -27 54 -34 47 -3 -3 -15
6 -26 20 -11 15 -25 26 -31 26 -6 0 -11 8 -11 17 0 9 -3 14 -6 10 -8 -8 -33
16 -27 26 2 4 -1 7 -7 7 -6 0 -37 27 -69 59 -33 33 -62 57 -65 54 -3 -4 -6 -1
-6 6 0 13 -98 111 -111 111 -5 0 -9 7 -9 15 0 8 -4 15 -9 15 -15 0 -61 52 -54
63 3 6 1 7 -5 3 -7 -4 -12 -1 -12 6 0 9 -3 9 -10 -2 -8 -12 -10 -12 -10 5 0
11 -16 31 -35 45 -19 14 -37 33 -41 43 -3 9 -10 15 -15 12 -5 -4 -9 0 -9 7 0
7 -13 22 -29 33 -16 10 -29 22 -28 25 1 3 -51 58 -115 123 -63 64 -113 117
-109 117 3 0 -2 5 -12 11 -9 6 -15 14 -12 20 6 8 -7 12 -21 7 -3 -2 -11 6 -17
18 -19 34 -65 84 -77 84 -6 0 -8 5 -5 10 3 6 -2 10 -11 10 -10 0 -15 3 -11 6
3 3 -8 19 -24 35 -16 15 -29 33 -29 38 0 5 -9 13 -20 16 -11 3 -20 13 -20 21
0 8 -4 14 -8 14 -5 0 -15 11 -22 25 -7 13 -16 22 -20 20 -4 -3 -10 5 -13 16
-4 13 -10 18 -18 13 -8 -4 -10 -3 -5 4 4 7 2 12 -3 12 -6 0 -11 6 -11 14 0 8
-8 17 -18 20 -11 4 -25 18 -32 31 -7 14 -17 25 -22 25 -4 0 -8 7 -8 15 0 8 -7
15 -16 15 -8 0 -12 4 -9 10 3 5 -3 15 -15 22 -11 7 -20 17 -20 23 0 6 -9 16
-20 23 -11 7 -20 18 -20 26 0 8 -7 16 -15 20 -8 3 -15 13 -15 21 0 9 -5 13
-10 10 -6 -3 -13 2 -17 12 -3 10 -13 22 -20 26 -7 5 -11 12 -8 18 4 5 -2 9
-11 9 -10 0 -15 3 -11 6 3 3 -5 17 -19 31 -13 13 -21 30 -18 36 4 7 4 9 -1 5
-8 -8 -55 44 -55 62 0 6 -4 8 -10 5 -5 -3 -10 -2 -10 3 0 8 -11 23 -50 70 -6
6 -7 12 -3 12 4 0 0 5 -9 11 -10 5 -18 17 -18 25 0 8 -4 12 -10 9 -5 -3 -10 1
-10 9 0 9 -4 16 -10 16 -5 0 -10 5 -10 11 0 7 -12 22 -26 35 -14 13 -23 28
-20 32 3 5 -4 15 -15 22 -10 8 -19 20 -19 27 0 7 -3 13 -7 13 -10 0 -49 58
-45 66 2 3 -5 13 -16 22 -10 9 -27 32 -37 50 -11 17 -23 32 -27 32 -4 0 -8 5
-8 12 0 6 -11 26 -26 45 -14 18 -21 33 -17 33 4 0 0 5 -10 11 -9 6 -15 14 -12
19 3 5 -4 14 -15 20 -11 6 -20 20 -20 30 0 11 -4 20 -10 20 -5 0 -10 9 -10 20
0 11 -3 20 -7 20 -8 0 -38 47 -41 63 0 4 -10 19 -21 34 -12 14 -18 29 -15 34
3 5 1 9 -4 9 -6 0 -27 34 -47 75 -20 41 -40 77 -46 80 -5 4 -7 11 -4 16 4 5 1
9 -5 9 -6 0 -8 5 -5 10 3 6 1 10 -5 10 -7 0 -10 6 -7 14 3 8 2 16 -3 18 -5 2
-10 10 -12 18 -2 8 -5 17 -8 20 -12 12 -30 51 -30 64 0 7 -7 19 -15 26 -12 10
-14 6 -10 -27 2 -21 -1 -43 -6 -50 -7 -7 -6 -14 2 -19 8 -5 9 -3 4 6 -5 9 -4
11 4 6 8 -6 9 -12 2 -20 -6 -7 -8 -15 -5 -19 11 -10 10 -106 -1 -99 -5 3 -4
-2 4 -11 11 -14 11 -17 0 -17 -9 0 -10 -3 -4 -8 6 -4 10 -16 10 -27 0 -11 -4
-23 -10 -27 -6 -5 -5 -8 4 -8 10 0 11 -3 2 -13 -6 -8 -8 -17 -4 -21 12 -11 12
-147 1 -140 -7 4 -7 0 0 -12 5 -12 9 -346 9 -864 1 -638 3 -845 12 -848 8 -3
6 -9 -6 -19 -10 -8 -13 -12 -6 -9 6 4 14 2 18 -4 3 -5 1 -10 -6 -10 -7 0 -8
-4 -2 -12 5 -7 9 -55 8 -105 0 -56 4 -93 10 -93 6 0 4 -4 -4 -9 -9 -6 -10 -10
-2 -16 9 -5 9 -10 1 -20 -8 -10 -8 -15 0 -20 8 -5 7 -11 -2 -23 -7 -9 -8 -13
-2 -9 7 4 12 -2 12 -18 0 -16 -5 -22 -12 -18 -7 5 -7 2 1 -8 7 -9 13 -64 14
-149 2 -76 7 -138 13 -142 6 -4 5 -12 -3 -22 -11 -12 -11 -16 -1 -16 9 0 9 -4
-1 -17 -8 -9 -9 -14 -3 -11 14 9 15 -63 1 -81 -8 -10 -8 -13 -1 -8 8 5 12 -65
13 -250 l1 -256 34 -33 c19 -18 31 -35 28 -38 -3 -3 2 -6 12 -6 9 0 14 -4 11
-10 -3 -5 -1 -10 4 -10 6 0 11 -7 11 -15 0 -8 4 -14 9 -13 9 3 91 -78 91 -90
0 -4 13 -16 29 -27 16 -10 27 -23 25 -27 -3 -4 3 -8 12 -8 10 0 15 -2 12 -6
-7 -7 45 -61 55 -56 4 2 7 -1 7 -6 0 -15 36 -52 50 -52 7 0 11 -3 7 -6 -3 -4
10 -21 29 -39 18 -18 34 -38 34 -44 0 -7 4 -10 8 -7 10 6 43 -30 35 -38 -4 -3
0 -6 8 -6 16 0 49 -34 49 -51 0 -5 3 -9 8 -7 4 2 27 -17 52 -41 25 -24 39 -41
31 -36 -10 5 -12 4 -7 -3 4 -7 14 -12 22 -12 8 0 14 -7 14 -15 0 -8 5 -15 11
-15 5 0 7 -4 4 -10 -3 -6 1 -7 9 -4 10 4 16 1 16 -9 0 -8 7 -17 15 -21 8 -3
15 -13 15 -23 0 -15 2 -16 10 -3 6 10 10 11 10 3 0 -7 42 -55 94 -107 51 -53
91 -98 88 -101 -3 -3 -1 -5 5 -5 6 0 69 -58 141 -129 71 -72 133 -127 137
-123 5 4 5 2 2 -5 -8 -13 20 -46 33 -38 4 3 10 -5 13 -16 3 -11 15 -23 26 -26
12 -3 21 -10 21 -15 0 -5 6 -16 13 -23 6 -8 18 -21 25 -30 7 -8 17 -13 23 -10
5 4 9 1 9 -5 0 -14 80 -90 95 -90 5 0 3 -5 -5 -10 -12 -8 -11 -10 8 -10 13 0
22 -6 22 -15 0 -8 7 -15 16 -15 8 0 12 -4 9 -10 -3 -5 -2 -10 3 -10 14 0 52
-36 52 -49 0 -7 5 -9 10 -6 6 3 10 -2 10 -11 0 -10 3 -15 6 -11 8 8 44 -25 38
-35 -3 -4 1 -8 8 -8 7 0 29 -18 48 -40 19 -22 41 -40 48 -40 6 0 12 -4 12 -10
0 -12 48 -60 60 -60 5 0 12 -5 16 -12 5 -7 3 -8 -6 -3 -9 5 -11 4 -6 -3 4 -7
12 -12 18 -12 12 0 48 -39 48 -52 0 -4 4 -7 9 -6 5 2 21 -10 36 -27 15 -16 24
-23 19 -16 -4 8 26 -20 68 -62 42 -42 80 -77 85 -77 5 0 16 -11 23 -25 7 -13
16 -23 20 -22 4 1 23 -15 43 -35 20 -21 38 -38 41 -38 10 0 46 -40 46 -51 0
-5 4 -7 10 -4 5 3 10 1 10 -5 0 -6 5 -8 12 -4 7 4 8 3 4 -4 -4 -6 4 -16 16
-23 35 -18 87 -72 81 -83 -3 -5 -1 -6 4 -3 6 4 27 -9 47 -28 21 -19 40 -35 42
-35 3 0 23 -18 44 -40 22 -23 40 -38 40 -35 0 4 7 0 15 -9 8 -8 15 -21 15 -28
0 -10 3 -9 10 2 8 13 10 12 10 -3 0 -10 4 -16 8 -13 4 2 18 -9 31 -25 13 -16
28 -29 35 -29 6 0 28 -18 49 -40 20 -22 44 -40 53 -40 8 0 13 -3 11 -7 -3 -5
1 -14 9 -21 8 -7 14 -10 14 -6 0 4 10 -5 23 -19 12 -15 28 -27 34 -27 6 0 13
-7 17 -15 3 -8 9 -14 13 -13 4 2 20 -9 35 -22 44 -41 62 -55 70 -52 5 1 8 -2
8 -8 0 -5 8 -10 18 -10 14 0 15 -2 2 -10 -13 -8 -12 -10 3 -10 11 0 15 -4 11
-12 -4 -7 -3 -8 4 -4 7 4 24 -5 38 -19 15 -15 35 -27 45 -28 10 -1 16 -3 14
-5 -7 -7 44 -52 60 -52 8 0 15 -7 15 -15 0 -8 6 -15 14 -15 8 0 24 -11 37 -25
13 -13 30 -25 37 -25 6 0 12 -4 12 -10 0 -5 4 -10 10 -10 9 0 35 -19 65 -47 7
-7 15 -9 19 -6 3 4 6 2 6 -3 0 -5 22 -23 50 -39 33 -19 46 -32 37 -37 -8 -5
-5 -8 10 -8 12 0 29 -7 37 -16 9 -8 16 -13 16 -9 0 4 7 0 15 -7 32 -29 45 -38
45 -33 0 4 13 -3 29 -14 16 -12 34 -21 41 -21 6 0 8 -4 5 -10 -3 -5 2 -10 11
-10 9 0 32 -11 49 -25 18 -13 35 -21 39 -18 3 3 8 -1 12 -10 3 -9 12 -13 21
-10 11 4 14 2 9 -5 -6 -11 -3 -13 19 -12 12 1 33 -26 27 -34 -3 -5 0 -6 7 -2
7 5 21 0 32 -10 10 -9 19 -14 19 -10 0 4 15 -4 33 -16 17 -13 44 -30 59 -38
15 -7 24 -18 21 -23 -4 -6 0 -8 10 -4 10 4 20 0 25 -9 5 -9 11 -16 13 -15 13
2 49 -13 49 -20 0 -5 18 -16 40 -25 22 -9 37 -20 34 -25 -3 -5 -2 -9 3 -8 13
3 74 -27 68 -33 -3 -3 17 -16 45 -29 27 -13 50 -27 50 -31 0 -5 7 -8 15 -8 15
0 27 -8 65 -42 10 -9 21 -13 25 -10 3 4 9 2 13 -3 9 -13 42 -34 65 -41 9 -4
17 -10 17 -14 0 -4 14 -13 30 -20 17 -7 30 -17 30 -23 0 -6 3 -7 7 -4 3 4 12
-1 20 -11 10 -11 12 -12 8 -2 -4 8 0 7 9 -4 10 -12 21 -16 33 -12 9 4 14 4 10
0 -10 -11 13 -34 33 -34 10 0 20 -4 22 -8 6 -14 66 -52 83 -52 9 0 14 -4 11
-9 -3 -5 8 -14 24 -21 17 -7 30 -17 30 -22 0 -5 4 -7 9 -4 5 3 14 -1 21 -9 7
-8 19 -15 26 -15 8 0 14 -4 14 -10 0 -5 7 -10 15 -10 8 0 15 -4 15 -9 0 -5 11
-12 25 -15 15 -4 23 -11 19 -18 -4 -6 -1 -9 7 -6 7 2 22 -4 33 -14 11 -10 26
-18 33 -18 8 0 11 -4 8 -10 -3 -5 3 -10 15 -10 11 0 23 -7 26 -15 4 -8 13 -15
21 -15 8 0 21 -6 28 -12 34 -30 45 -38 55 -38 6 0 18 -7 27 -15 8 -8 19 -12
25 -9 6 4 9 3 6 -2 -5 -8 16 -37 24 -33 9 3 58 -26 58 -34 0 -6 3 -8 6 -4 3 3
15 -3 27 -13 11 -11 24 -17 29 -14 4 3 8 1 8 -4 0 -5 25 -25 56 -43 31 -19 61
-39 69 -46 7 -7 15 -10 18 -7 3 3 10 -4 17 -15 6 -12 20 -21 30 -21 11 0 20
-4 20 -10 0 -5 7 -10 15 -10 7 0 18 -6 22 -14 4 -8 15 -16 23 -18 14 -3 20 -7
54 -35 8 -7 20 -13 26 -13 5 0 10 -4 10 -10 0 -5 9 -10 21 -10 11 0 18 -4 15
-9 -3 -4 15 -19 40 -32 26 -13 48 -29 51 -36 3 -7 9 -10 14 -7 5 3 9 0 9 -5 0
-6 7 -11 15 -11 8 0 15 -4 15 -9 0 -5 16 -16 35 -25 19 -9 35 -21 35 -26 0 -5
10 -12 23 -16 12 -4 29 -15 38 -25 9 -11 24 -19 33 -19 10 0 14 -4 11 -10 -3
-5 -1 -10 5 -10 6 0 26 -11 44 -25 18 -14 37 -25 43 -25 6 0 18 -11 29 -24 10
-14 22 -23 26 -20 4 3 11 -2 14 -10 3 -9 12 -16 20 -16 8 0 14 -4 14 -10 0 -5
5 -10 11 -10 5 0 24 -13 42 -30 18 -16 38 -30 44 -30 7 0 18 -9 25 -20 7 -11
18 -20 25 -20 7 0 22 -10 35 -23 23 -23 64 -52 102 -74 11 -7 17 -13 11 -13
-5 0 8 -12 30 -25 22 -14 36 -25 30 -26 -5 0 0 -4 13 -10 13 -5 20 -13 17 -19
-3 -5 1 -10 10 -10 9 0 32 -16 51 -35 19 -20 34 -33 34 -30 0 3 21 -17 48 -43
26 -27 54 -51 62 -55 9 -3 10 -6 3 -6 -9 -1 -7 -7 5 -19 9 -11 20 -17 25 -15
4 2 7 0 7 -6 0 -6 11 -21 25 -35 14 -14 25 -30 25 -36 0 -5 5 -10 10 -10 6 0
10 -7 10 -15 0 -8 4 -15 8 -15 9 0 35 -46 36 -63 1 -5 9 -15 19 -22 10 -7 18
-16 18 -19 -3 -26 1 -36 11 -30 8 5 9 2 5 -9 -4 -11 -1 -17 8 -17 8 0 15 -7
15 -15 0 -8 4 -15 9 -15 5 0 11 -10 14 -22 4 -12 9 -19 13 -15 11 11 10 107
-1 107 -5 0 -9 21 -9 47 1 27 -3 53 -8 60 -6 7 -5 14 2 18 8 5 7 11 -2 23 -11
13 -11 14 2 7 12 -7 12 -4 -2 17 -9 14 -14 29 -10 33 10 9 10 55 0 55 -4 0 -3
11 2 25 5 14 6 25 2 25 -8 0 -11 29 -16 216 -2 83 -9 151 -16 164 -8 15 -8 20
-1 16 7 -5 9 0 3 16 -4 13 -7 62 -7 110 0 49 -4 88 -10 88 -5 0 -4 5 2 11 9 9
9 16 0 31 -10 15 -9 21 3 28 8 5 10 10 4 10 -5 0 -11 18 -13 41 -1 31 1 39 11
33 10 -6 11 -5 1 7 -8 10 -12 78 -13 219 -3 311 -5 364 -14 379 -6 10 -5 12 3
7 8 -5 11 2 9 23 -1 17 -6 31 -10 31 -4 0 -8 5 -8 11 0 5 4 8 9 4 5 -3 9 8 9
24 -1 17 -4 28 -8 26 -4 -2 -7 2 -7 10 0 8 4 12 8 10 4 -3 8 106 8 242 1 178
5 251 14 262 6 8 7 12 1 8 -6 -4 -10 10 -10 38 0 28 4 42 10 38 6 -4 5 0 -1 9
-7 8 -11 17 -8 20 9 9 12 68 4 62 -5 -3 -5 5 -1 18 5 13 8 51 7 86 0 34 2 62
6 62 3 0 4 11 1 25 -2 14 0 25 4 25 5 0 9 59 9 130 0 73 4 130 9 130 5 0 6 3
3 6 -3 4 -2 15 3 25 7 12 7 20 0 24 -6 4 -7 13 -1 24 6 10 6 23 1 31 -5 8 -4
22 1 32 6 10 7 23 4 28 -3 6 -3 10 2 10 4 0 9 28 10 63 3 94 5 107 12 102 4
-2 6 22 5 53 -1 31 3 63 9 70 6 8 6 12 -2 12 -8 0 -9 5 -1 19 5 11 10 40 10
66 0 25 4 44 8 41 4 -2 8 4 8 14 0 10 -4 16 -9 13 -5 -3 -5 3 0 13 5 11 11 39
12 64 2 25 6 47 10 50 4 3 7 29 7 58 -1 28 1 52 4 52 3 0 7 14 8 32 2 17 8 38
15 47 8 10 8 13 1 8 -8 -4 -11 2 -10 17 0 13 4 22 7 20 3 -2 6 15 7 37 1 23 5
46 9 52 3 6 8 35 10 66 2 30 7 58 11 61 4 3 7 15 6 28 -1 12 3 22 7 22 11 0 7
23 -6 32 -6 5 -5 8 3 8 7 0 12 13 12 30 0 17 3 30 8 30 4 0 8 17 10 38 3 36 9
77 12 77 1 0 3 9 5 20 2 11 7 41 13 68 5 26 7 47 5 47 -2 0 3 8 13 17 10 10
12 19 6 21 -7 2 -8 11 -2 28 5 13 7 24 4 24 -4 0 -1 7 6 15 6 8 9 19 5 25 -4
6 -2 17 5 25 6 7 12 27 12 44 1 17 4 31 8 31 11 0 19 50 9 56 -5 3 -2 12 6 20
8 9 15 29 15 45 0 16 4 29 8 29 4 0 9 8 10 18 1 9 5 38 8 65 3 26 10 47 16 47
5 0 8 6 5 13 -2 6 0 21 6 31 5 11 11 33 12 49 2 16 7 32 12 36 5 3 8 16 7 29
-1 12 3 25 7 28 5 3 9 14 9 25 0 10 3 19 8 19 4 0 8 14 8 31 1 17 6 34 11 38
5 3 8 16 7 29 -1 13 5 26 12 29 8 3 11 10 7 16 -3 5 3 17 13 25 19 14 19 15 0
8 -16 -5 -17 -4 -6 9 7 8 9 15 6 15 -4 0 -1 10 6 23 7 12 11 26 10 31 -2 4 3
15 10 24 11 13 11 14 -2 7 -9 -5 -8 0 4 13 11 12 16 22 11 22 -4 0 -3 6 2 13
5 6 15 32 22 57 8 25 16 52 19 60 3 8 4 18 4 23 -1 4 6 7 16 8 11 0 12 2 4 6
-10 4 -9 10 4 30 11 18 12 23 3 17 -11 -6 -12 -5 -2 8 7 8 10 18 6 21 -3 4 -1
7 5 7 7 0 12 11 12 24 0 13 4 26 10 28 5 2 11 15 12 31 1 15 6 27 10 27 4 0 7
3 6 8 0 4 2 16 7 27 27 67 34 86 35 90 0 3 11 30 25 60 13 31 24 56 25 58 0 1
3 12 6 25 4 12 10 22 15 22 4 0 6 9 4 19 -2 11 3 22 11 25 9 3 12 11 8 17 -3
6 -2 14 4 18 5 3 12 15 14 26 1 11 7 23 11 26 5 3 9 12 10 20 2 8 6 20 10 27
5 6 5 18 1 25 -4 6 -4 9 1 5 10 -9 37 40 29 53 -3 5 1 9 10 9 9 0 13 8 12 25
-2 13 1 22 5 19 8 -5 11 3 8 22 0 4 3 10 8 13 8 6 54 96 59 116 9 32 52 104
58 98 4 -5 7 -3 5 2 -4 16 12 65 22 65 5 0 6 8 2 18 -3 9 -3 14 2 10 10 -10
57 81 48 95 -3 5 -2 7 4 4 9 -6 30 25 31 47 0 5 4 12 9 15 4 3 15 15 23 25 13
18 13 19 0 11 -11 -6 -10 -3 3 12 9 11 17 25 17 31 0 7 5 12 10 12 6 0 10 7
10 15 0 8 5 15 11 15 5 0 8 4 4 9 -3 6 3 14 12 20 10 5 17 12 16 15 -3 11 10
46 17 46 4 0 15 18 25 40 10 22 22 40 27 40 4 0 8 7 8 15 0 8 5 15 11 15 6 0
9 7 5 15 -3 8 -2 15 2 15 4 0 16 12 26 27 13 17 14 24 5 19 -8 -4 -4 1 9 10
12 9 22 22 22 29 0 7 10 23 23 37 12 14 23 32 25 39 2 8 8 16 13 17 5 2 9 8 9
13 0 9 6 18 40 58 8 10 16 24 18 32 1 8 14 24 29 37 14 13 23 25 20 28 -5 5
10 28 40 59 7 8 17 25 23 39 5 14 16 26 25 26 8 0 14 3 13 8 -3 10 31 60 64
96 15 16 25 32 22 37 -3 5 2 9 11 9 9 0 14 4 11 9 -7 11 19 33 28 23 4 -4 7
-2 6 3 -4 18 12 55 21 49 5 -3 9 -1 9 4 0 15 37 52 44 44 4 -4 7 -2 6 3 -5 23
1 35 18 36 10 0 12 3 5 6 -8 3 -2 14 17 30 17 13 30 31 30 39 0 9 4 13 8 10 5
-3 19 12 33 33 15 25 27 35 31 27 5 -7 8 -5 8 7 0 9 5 17 10 17 6 0 10 5 10
10 0 13 43 56 53 52 4 -1 6 2 5 6 -4 11 49 72 56 65 3 -4 6 0 6 7 0 8 38 51
85 96 47 46 85 88 85 94 0 6 3 9 8 7 9 -5 42 30 34 37 -3 3 1 6 8 6 7 0 39 27
72 60 32 33 63 60 68 60 6 0 10 6 10 13 0 7 13 21 30 30 16 10 35 27 40 38 6
10 15 19 21 19 5 0 25 16 43 35 19 19 39 35 45 35 6 0 11 5 11 11 0 5 4 8 9 4
5 -3 13 4 16 16 4 11 9 18 12 15 3 -3 15 6 25 20 11 14 22 23 25 20 3 -2 18 9
35 25 17 16 35 26 40 23 4 -3 7 0 6 6 -2 7 6 17 17 23 11 7 25 19 32 27 7 8
13 11 13 6 0 -6 7 -1 15 10 8 10 15 15 15 11 0 -4 14 6 30 23 17 17 30 28 30
25 0 -4 6 0 14 7 7 7 24 20 36 28 12 8 28 20 34 26 7 6 26 19 44 28 18 9 32
21 32 27 0 6 7 9 15 5 10 -3 15 1 15 11 0 9 3 14 6 10 3 -3 15 3 27 14 11 10
27 19 34 19 7 0 13 4 13 10 0 5 11 12 25 16 14 3 22 10 19 15 -3 5 4 9 16 9
12 0 18 5 15 10 -3 6 3 10 15 10 14 0 19 4 14 12 -5 7 -2 9 9 5 9 -3 18 1 21
10 4 9 9 13 12 10 4 -3 15 3 26 13 11 10 27 16 36 13 9 -4 13 -2 9 3 -5 10 52
47 63 42 3 -2 16 7 30 20 13 12 32 22 42 22 10 0 18 5 18 10 0 6 7 10 15 10 8
0 15 5 15 11 0 6 7 9 15 5 9 -3 15 0 15 9 0 9 6 12 15 9 8 -4 15 -1 15 6 0 6
4 9 9 5 5 -3 16 2 25 11 9 8 21 12 27 8 8 -4 9 -3 5 4 -5 8 0 12 13 12 12 0
21 5 21 10 0 6 8 10 18 10 10 0 23 5 30 12 6 6 17 13 24 14 29 4 43 9 48 16 3
4 16 9 28 11 12 2 25 7 29 11 5 5 -4 7 -19 4 -15 -3 -29 0 -32 6 -3 6 -5 7 -6
1z"/>
<path d="M6259 14580 c-2 -42 -3 -47 -11 -56 -12 -11 -10 -26 2 -19 6 3 10 2
10 -3 0 -6 -7 -13 -15 -16 -11 -4 -13 -11 -7 -23 9 -20 8 -44 -5 -88 -5 -16
-9 -50 -8 -75 1 -25 -2 -53 -8 -64 -7 -14 -6 -17 5 -10 10 6 11 5 2 -7 -6 -8
-11 -21 -12 -29 -2 -80 -7 -122 -15 -127 -5 -3 -3 -9 4 -14 10 -6 11 -9 2 -9
-7 0 -13 -5 -13 -11 0 -5 5 -7 12 -3 7 5 8 3 2 -7 -9 -14 -10 -24 -15 -146 -2
-40 -6 -73 -9 -73 -3 0 -6 -83 -7 -184 0 -102 -4 -193 -8 -203 -9 -21 -13
-653 -4 -653 3 0 6 -7 6 -15 0 -8 -5 -15 -11 -15 -6 0 -4 -5 4 -10 8 -5 11
-10 7 -10 -4 0 -3 -9 3 -20 6 -11 7 -20 2 -20 -5 0 -7 -17 -3 -37 3 -21 6 -76
6 -123 0 -47 3 -87 7 -90 4 -3 8 -38 10 -79 1 -40 6 -75 10 -77 5 -3 3 -14 -2
-25 -6 -10 -7 -19 -2 -19 5 0 9 -18 8 -41 -1 -22 2 -43 7 -46 5 -3 3 -9 -4
-14 -11 -7 -11 -9 -1 -9 7 0 10 -4 7 -10 -3 -5 -3 -10 2 -10 4 0 9 -32 9 -71
1 -39 5 -74 10 -78 5 -3 9 -17 9 -31 0 -14 3 -33 8 -42 5 -12 3 -18 -5 -18 -9
-1 -8 -4 3 -13 11 -8 14 -19 9 -32 -8 -22 -2 -47 9 -41 4 3 6 -22 6 -55 -1
-33 3 -62 7 -65 4 -3 8 -25 8 -50 0 -34 3 -43 13 -38 8 5 8 2 -2 -9 -11 -14
-11 -17 0 -17 10 0 10 -3 2 -11 -12 -12 -6 -42 6 -35 3 3 5 -13 4 -35 -1 -27
2 -37 9 -33 7 5 9 1 5 -9 -4 -10 -2 -17 5 -17 7 0 6 -5 -2 -15 -10 -12 -9 -16
5 -21 10 -4 15 -14 12 -26 -3 -10 1 -24 8 -31 9 -10 10 -19 3 -32 -7 -12 -7
-16 0 -11 12 7 22 -16 22 -49 0 -13 6 -26 13 -28 9 -4 8 -6 -2 -6 -11 -1 -11
-4 -1 -15 6 -8 19 -13 28 -10 9 3 6 -2 -8 -10 -14 -8 -20 -15 -14 -16 7 0 14
-9 17 -21 4 -13 10 -18 18 -13 8 4 10 3 5 -5 -4 -6 -12 -9 -17 -6 -5 4 -9 1
-9 -4 0 -6 5 -11 10 -11 6 0 10 -12 10 -26 0 -17 4 -23 13 -18 7 5 6 0 -3 -11
-11 -14 -12 -17 -1 -11 9 6 12 5 9 -5 -3 -8 2 -20 9 -27 11 -12 11 -17 1 -30
-10 -12 -10 -14 0 -8 11 6 17 -5 13 -26 0 -5 4 -8 10 -8 5 0 8 -4 4 -9 -3 -5
2 -16 10 -24 16 -17 20 -32 6 -23 -5 4 -7 -3 -4 -14 3 -11 9 -17 14 -14 5 3 6
-2 3 -10 -3 -9 -2 -16 3 -16 13 0 12 -33 -1 -42 -7 -5 -4 -8 7 -8 10 0 16 -4
12 -9 -3 -5 -1 -12 5 -16 7 -4 6 -13 -1 -27 -8 -15 -8 -19 0 -14 7 5 11 -1 11
-14 0 -14 4 -19 13 -14 9 6 9 5 0 -7 -9 -11 -8 -18 1 -31 7 -10 17 -14 22 -10
4 4 2 -1 -5 -10 -7 -10 -9 -18 -4 -18 6 0 10 -10 9 -22 -1 -13 6 -30 14 -38 9
-8 11 -12 4 -7 -8 5 -10 -1 -6 -19 3 -20 7 -23 14 -12 7 9 8 7 5 -9 -3 -14 0
-23 6 -23 7 0 5 -5 -3 -10 -13 -8 -13 -10 2 -10 11 0 16 -6 13 -20 -2 -11 1
-23 7 -26 7 -5 8 -2 3 6 -5 8 -4 11 3 7 5 -4 8 -16 5 -27 -3 -11 0 -20 6 -20
6 0 11 -9 11 -20 0 -11 4 -20 9 -20 5 0 11 -9 14 -20 3 -13 1 -18 -6 -14 -7 3
-4 -1 5 -9 10 -8 15 -17 11 -20 -3 -4 -1 -13 5 -20 7 -8 8 -18 4 -22 -4 -5 -1
-5 6 -1 8 5 12 0 12 -13 0 -12 5 -21 10 -21 6 0 10 -9 10 -19 0 -11 6 -22 13
-24 9 -4 9 -6 -1 -6 -10 -1 -10 -5 2 -16 8 -9 13 -22 9 -30 -6 -17 13 -45 31
-45 6 0 4 5 -4 11 -12 9 -12 10 3 5 10 -3 21 -6 23 -6 3 0 0 -9 -6 -20 -8 -15
-7 -18 2 -15 7 2 22 -7 32 -22 11 -14 14 -23 8 -19 -7 4 -12 2 -12 -3 0 -6 5
-11 10 -11 6 0 10 -7 10 -15 0 -8 5 -15 10 -15 6 0 10 -12 10 -26 0 -16 4 -23
11 -18 7 4 10 1 7 -7 -2 -7 3 -20 13 -29 10 -8 19 -22 21 -30 2 -8 9 -21 16
-28 6 -7 12 -22 12 -33 0 -11 5 -17 10 -14 6 3 10 -1 10 -10 0 -10 5 -13 13
-9 6 4 9 4 5 -1 -4 -4 -2 -17 4 -29 7 -11 11 -24 10 -28 -1 -5 2 -8 7 -8 5 0
14 -13 21 -30 7 -16 17 -30 22 -30 6 0 7 -8 4 -17 -4 -10 -4 -14 0 -10 9 9 33
-23 34 -46 0 -10 5 -15 10 -12 6 3 10 0 10 -9 0 -8 4 -16 8 -18 11 -4 57 -81
54 -90 -1 -5 4 -7 11 -5 6 1 11 -4 10 -10 -2 -7 2 -13 7 -13 6 0 10 -4 10 -10
0 -10 20 -37 53 -72 9 -10 17 -22 17 -28 0 -5 5 -10 12 -10 6 0 9 -3 5 -6 -3
-4 -1 -12 6 -19 7 -6 21 -24 32 -40 11 -15 28 -35 37 -43 9 -9 15 -19 12 -24
-3 -5 0 -7 7 -6 7 2 13 -2 14 -9 0 -6 10 -20 22 -31 13 -10 20 -22 16 -26 -3
-3 1 -6 10 -6 9 0 17 -5 17 -11 0 -7 16 -27 35 -45 18 -19 32 -34 29 -34 -2 0
48 -52 112 -116 68 -68 125 -116 138 -117 22 -2 56 -26 56 -40 0 -12 27 -37
33 -31 2 3 7 -7 11 -21 4 -14 14 -25 23 -25 9 0 14 -3 10 -6 -3 -4 16 -28 43
-55 28 -27 50 -55 50 -61 0 -6 2 -9 6 -6 3 3 31 -21 63 -53 32 -32 61 -55 65
-52 3 3 6 -1 6 -10 0 -9 4 -17 8 -17 8 0 50 -34 99 -79 12 -12 26 -21 30 -21
5 0 16 -8 25 -17 37 -38 55 -53 65 -53 6 0 13 -7 17 -15 3 -8 12 -15 21 -15 8
0 15 -4 15 -8 0 -5 12 -15 28 -23 15 -8 34 -22 42 -31 8 -9 22 -18 30 -20 8
-2 21 -11 28 -20 7 -10 23 -18 34 -18 12 0 18 -3 15 -7 -4 -3 2 -11 12 -17 11
-6 42 -24 70 -40 28 -16 48 -33 45 -37 -3 -5 2 -6 10 -3 9 3 16 1 16 -5 0 -6
9 -11 20 -11 11 0 23 -7 26 -15 4 -8 10 -12 15 -9 5 3 9 0 9 -5 0 -6 7 -11 15
-11 8 0 15 -5 15 -12 0 -6 3 -8 6 -5 4 4 19 -2 33 -12 14 -10 36 -22 49 -25
12 -4 19 -12 16 -18 -4 -6 -2 -8 4 -4 6 3 17 -1 25 -9 9 -8 25 -15 36 -15 12
0 21 -4 21 -10 0 -5 7 -10 15 -10 8 0 15 -4 15 -10 0 -5 7 -6 17 -3 11 4 14 3
9 -5 -4 -8 0 -12 12 -12 10 0 28 -9 40 -20 14 -14 22 -16 22 -8 0 8 5 6 11 -4
5 -10 20 -18 31 -18 12 0 33 -10 46 -22 14 -13 22 -18 19 -11 -4 6 19 -2 50
-18 31 -16 63 -29 71 -29 7 0 20 -7 28 -15 8 -8 21 -12 29 -9 8 4 15 2 15 -4
0 -9 40 -25 65 -26 6 -1 13 -5 17 -11 4 -5 13 -10 20 -10 7 -1 27 -7 43 -14
17 -7 44 -14 61 -15 17 0 30 -6 27 -11 -2 -6 4 -11 14 -12 10 -1 36 -4 57 -9
39 -7 39 -7 20 13 -10 11 -21 18 -22 17 -2 -1 -26 19 -52 46 -27 26 -52 45
-55 42 -3 -3 -5 0 -5 6 0 7 -21 32 -46 57 -25 25 -42 45 -38 45 4 0 -1 7 -12
15 -10 8 -15 15 -10 15 6 0 -5 12 -22 26 -18 15 -32 33 -32 40 0 8 -5 14 -11
14 -5 0 -7 5 -4 10 3 6 1 10 -4 10 -6 0 -11 6 -11 13 0 8 -9 22 -20 32 -11 10
-17 22 -14 26 3 5 0 9 -5 9 -6 0 -11 6 -11 13 0 7 -9 23 -20 35 -11 12 -20 29
-20 38 0 9 -9 29 -21 45 -11 16 -17 29 -14 29 4 0 -2 16 -14 35 -11 20 -18 42
-14 52 4 11 3 14 -5 9 -8 -5 -12 1 -12 18 0 14 -5 26 -11 26 -6 0 -9 10 -8 23
2 12 -2 31 -7 42 -6 11 -11 36 -13 55 -1 19 -5 37 -9 40 -4 3 -7 14 -6 25 0
11 -5 26 -10 34 -9 12 -8 13 4 6 12 -7 13 -6 3 6 -13 17 -17 373 -4 365 4 -3
7 15 6 39 0 26 4 46 11 49 7 3 10 14 7 25 -3 11 -2 29 3 38 4 10 8 21 9 26 2
4 4 9 5 12 1 3 3 8 4 13 1 4 4 12 8 18 4 6 6 20 3 32 -2 12 3 23 12 26 9 4 13
9 10 13 -4 3 -2 14 3 23 9 16 26 17 187 15 181 -3 231 -7 293 -19 19 -4 49 -8
67 -10 17 -1 37 -6 45 -12 7 -6 27 -10 45 -9 18 1 30 -2 27 -7 -3 -4 9 -8 25
-8 17 0 31 -5 31 -12 0 -6 3 -9 6 -5 4 3 18 0 33 -7 14 -7 32 -11 39 -9 6 3
12 0 12 -7 0 -6 4 -9 9 -6 5 3 11 -1 15 -9 3 -8 14 -15 25 -15 11 0 23 -5 26
-10 4 -6 11 -8 16 -5 5 4 9 2 9 -2 0 -5 23 -21 51 -37 28 -15 62 -38 74 -52
13 -14 27 -26 32 -27 14 -2 52 -45 46 -51 -4 -3 1 -6 10 -6 10 0 17 -5 17 -11
0 -5 4 -7 10 -4 6 4 7 -1 3 -11 -4 -12 -3 -15 5 -10 7 4 12 2 12 -4 0 -6 6
-18 13 -25 29 -33 37 -45 37 -55 0 -5 5 -10 10 -10 6 0 10 -9 10 -20 0 -10 8
-24 18 -29 12 -6 17 -20 16 -45 -1 -20 2 -33 7 -30 5 3 10 -12 10 -33 3 -67 4
-78 12 -90 5 -8 4 -13 -2 -13 -6 0 -11 -5 -11 -11 0 -5 3 -8 8 -6 4 3 7 -6 7
-19 0 -13 -4 -24 -10 -24 -5 0 -3 -5 5 -10 12 -8 12 -10 1 -10 -10 0 -11 -3
-2 -13 6 -8 8 -17 4 -21 -4 -4 -8 -17 -9 -29 -5 -58 -9 -77 -14 -77 -3 0 -7
-20 -7 -44 -1 -25 -6 -53 -11 -63 -5 -10 -8 -26 -7 -35 2 -10 0 -18 -3 -18 -8
0 -32 -72 -32 -95 0 -8 -5 -15 -11 -15 -5 0 -8 -4 -4 -9 3 -5 1 -12 -5 -16 -6
-4 -8 -10 -5 -15 3 -5 -2 -16 -11 -25 -9 -9 -14 -19 -11 -22 4 -3 -5 -25 -18
-49 -14 -24 -21 -44 -17 -44 4 0 3 -4 -3 -8 -5 -4 -16 -18 -23 -31 -11 -19
-11 -22 0 -16 7 3 4 -1 -7 -10 -11 -9 -19 -23 -17 -31 2 -8 -4 -14 -12 -14
-10 0 -13 -6 -10 -15 4 -8 2 -15 -3 -15 -5 0 -15 -16 -23 -35 -8 -19 -18 -35
-22 -35 -5 0 -6 -4 -3 -10 3 -5 1 -10 -4 -10 -6 0 -11 -6 -11 -13 0 -7 -11
-24 -25 -39 -14 -15 -24 -30 -23 -32 2 -2 -7 -16 -19 -30 -13 -14 -20 -26 -15
-26 4 -1 -3 -9 -15 -19 -12 -10 -19 -21 -16 -25 4 -3 1 -6 -6 -6 -7 0 -9 -5
-6 -10 3 -6 -1 -13 -9 -16 -9 -3 -16 -12 -16 -20 0 -8 -4 -14 -10 -14 -5 0
-10 -8 -10 -17 0 -9 -3 -13 -7 -10 -10 10 -35 -31 -27 -45 4 -6 3 -8 -3 -5 -9
6 -40 -27 -44 -48 -4 -15 -26 -35 -40 -35 -7 0 -9 -3 -6 -6 4 -4 -6 -18 -21
-32 -15 -13 -20 -21 -12 -17 8 3 5 -3 -8 -14 -14 -12 -21 -26 -16 -33 4 -7 3
-10 -1 -5 -10 9 -66 -43 -59 -55 3 -4 0 -8 -6 -8 -12 0 -41 -25 -36 -31 6 -6
-73 -77 -79 -71 -5 5 -9 -14 -6 -31 0 -4 -2 -6 -6 -5 -5 1 -79 -68 -166 -155
-87 -87 -162 -155 -168 -152 -5 4 -9 -1 -9 -9 0 -9 -3 -16 -8 -16 -4 0 -20
-11 -35 -25 -15 -14 -27 -23 -27 -19 0 4 -12 -6 -27 -22 -15 -16 -31 -28 -35
-26 -4 1 -8 -2 -8 -7 0 -5 -9 -12 -20 -16 -11 -3 -19 -12 -17 -18 1 -7 -4 -11
-10 -9 -7 1 -13 -3 -13 -9 0 -5 -4 -7 -10 -4 -5 3 -10 -2 -10 -11 0 -10 -3
-15 -6 -11 -3 3 -20 -7 -38 -23 -17 -17 -37 -30 -44 -30 -7 0 -10 -4 -7 -10 3
-5 -1 -10 -10 -10 -8 0 -18 -7 -21 -15 -4 -8 -13 -15 -21 -15 -8 0 -11 -4 -8
-10 3 -5 0 -10 -7 -10 -7 0 -25 -11 -40 -25 -15 -14 -32 -25 -38 -25 -5 0 -9
-6 -8 -12 2 -7 -5 -12 -15 -11 -12 0 -16 -4 -13 -13 3 -8 2 -13 -2 -12 -7 3
-37 -20 -74 -54 -10 -10 -20 -18 -23 -18 -12 1 -54 -38 -48 -44 3 -3 -4 -6
-16 -6 -12 0 -19 -4 -16 -10 3 -5 3 -10 -2 -10 -4 0 -25 -16 -47 -35 -21 -19
-42 -35 -48 -35 -5 0 -6 -5 -3 -11 4 -6 -2 -13 -14 -16 -12 -3 -21 -12 -21
-19 0 -8 -5 -14 -11 -14 -16 0 -59 -42 -59 -58 0 -7 -4 -11 -9 -7 -6 3 -14 -3
-20 -12 -6 -10 -11 -14 -11 -9 0 5 -9 -1 -20 -14 -11 -13 -20 -20 -20 -16 0 4
-17 -10 -39 -31 -21 -21 -36 -42 -33 -47 3 -5 -2 -7 -10 -4 -11 5 -14 0 -13
-16 2 -14 -3 -23 -11 -23 -11 0 -11 3 -1 16 11 14 10 14 -6 2 -10 -8 -16 -20
-13 -26 2 -7 -4 -19 -15 -28 -10 -9 -19 -13 -19 -7 0 5 8 13 18 19 15 9 15 10
-5 8 -12 0 -19 -5 -17 -9 3 -4 -2 -8 -10 -8 -8 0 -18 -4 -21 -10 -3 -6 1 -7 9
-4 9 3 16 1 16 -5 0 -10 -14 -15 -34 -12 -5 1 -6 -5 -2 -14 3 -9 2 -14 -3 -11
-4 3 -17 -1 -27 -9 -14 -10 -15 -14 -5 -15 8 0 11 -3 8 -6 -4 -4 -14 -1 -24 7
-11 9 -14 10 -9 2 4 -7 3 -13 -3 -13 -6 0 -13 -11 -17 -25 -3 -14 -10 -23 -14
-20 -4 3 -11 -6 -14 -20 -4 -14 -13 -25 -21 -25 -8 0 -15 -9 -15 -19 0 -11 -4
-23 -10 -26 -6 -3 -7 1 -4 10 5 11 2 14 -10 9 -9 -3 -14 -10 -11 -14 3 -4 -2
-11 -11 -14 -9 -3 -14 -13 -11 -21 4 -10 1 -12 -10 -8 -12 5 -14 3 -8 -7 5 -8
4 -11 -2 -7 -6 4 -21 -2 -33 -13 -13 -11 -19 -20 -14 -21 5 0 -1 -4 -13 -9
-13 -5 -23 -14 -23 -20 0 -6 5 -8 12 -4 7 4 8 3 4 -4 -4 -6 -13 -9 -21 -5 -10
3 -15 -1 -15 -13 0 -16 -2 -17 -10 -4 -8 12 -10 10 -10 -9 0 -13 -3 -22 -6
-18 -7 7 -34 -17 -34 -31 0 -6 -7 -12 -15 -16 -8 -3 -15 -12 -15 -21 0 -8 -7
-15 -15 -15 -9 0 -12 -6 -9 -15 4 -11 2 -13 -9 -10 -9 4 -16 -2 -20 -16 -4
-13 -9 -20 -13 -17 -8 8 -26 -9 -43 -40 -6 -12 -18 -22 -26 -22 -9 0 -12 -6
-9 -15 5 -11 2 -13 -12 -8 -12 5 -16 2 -13 -8 3 -8 -6 -25 -20 -39 -13 -14
-20 -19 -16 -11 6 10 4 12 -4 7 -9 -6 -9 -11 1 -24 10 -12 10 -14 1 -8 -8 4
-13 2 -13 -4 0 -6 -3 -9 -7 -7 -5 3 -14 -1 -21 -9 -7 -8 -9 -14 -5 -14 4 0 -5
-11 -21 -25 -16 -14 -26 -25 -22 -25 4 0 -7 -13 -23 -29 -16 -16 -27 -32 -24
-35 4 -3 -1 -6 -10 -6 -20 0 -23 -16 -4 -23 11 -5 -17 -11 -36 -8 -4 1 -2 -9
4 -21 12 -22 11 -22 -6 -8 -10 8 -16 10 -12 4 3 -6 -3 -17 -14 -24 -23 -17
-24 -27 -4 -27 8 0 15 6 15 14 0 7 4 13 8 13 4 0 8 -9 8 -19 0 -13 -6 -18 -18
-16 -10 2 -20 -1 -24 -6 -3 -6 -17 -15 -31 -20 -21 -8 -23 -12 -13 -24 10 -12
8 -13 -9 -10 -24 4 -37 -10 -20 -21 8 -5 9 -3 4 6 -6 9 -4 11 4 6 7 -5 9 -11
6 -15 -6 -6 -10 -7 -36 -10 -5 0 -7 -5 -4 -11 3 -5 2 -10 -4 -10 -6 0 -8 -7
-5 -15 5 -11 2 -14 -12 -9 -11 4 -16 4 -12 -1 4 -4 -4 -17 -18 -27 -19 -16
-22 -23 -13 -34 6 -8 16 -11 22 -7 6 3 7 1 3 -6 -6 -8 -12 -9 -20 -2 -14 12
-36 -4 -36 -27 0 -7 -4 -10 -10 -7 -5 3 -10 2 -10 -4 0 -6 -10 -19 -22 -31
-24 -22 -18 -26 13 -9 11 5 17 14 14 20 -4 5 -1 9 4 9 21 0 10 -21 -19 -38
-16 -9 -30 -23 -30 -30 0 -6 -6 -11 -12 -10 -7 2 -12 -3 -10 -11 2 -9 -3 -11
-13 -7 -9 3 -14 2 -10 -3 6 -11 -33 -81 -46 -81 -5 0 -9 -9 -9 -21 0 -11 -4
-18 -9 -15 -10 7 -24 -22 -16 -34 3 -5 0 -12 -6 -16 -8 -5 -9 -3 -4 7 8 12 6
12 -8 0 -9 -7 -17 -20 -17 -28 0 -9 -5 -11 -12 -7 -8 5 -7 0 2 -11 8 -10 10
-16 5 -13 -6 4 -17 2 -25 -3 -12 -8 -12 -12 -2 -16 17 -7 15 -24 -3 -17 -15 6
-19 -4 -16 -36 2 -12 0 -12 -7 -1 -12 16 -27 -3 -16 -21 4 -7 3 -8 -4 -4 -7 4
-12 1 -12 -8 0 -9 -5 -16 -11 -16 -5 0 -7 -4 -4 -10 3 -5 -3 -17 -15 -27 -11
-10 -20 -26 -20 -36 0 -10 -5 -15 -11 -12 -6 4 -9 0 -7 -11 2 -11 -2 -18 -9
-17 -7 2 -10 -4 -7 -12 4 -9 -1 -18 -11 -21 -13 -5 -14 -9 -3 -15 10 -7 9 -9
-4 -9 -11 0 -18 -8 -18 -21 0 -11 -5 -17 -10 -14 -6 4 -13 -7 -16 -24 -4 -16
-15 -38 -25 -47 -10 -9 -16 -21 -13 -25 3 -5 0 -9 -5 -9 -6 0 -11 -9 -11 -21
0 -11 -4 -18 -8 -15 -5 3 -18 -17 -30 -43 -11 -27 -28 -56 -37 -65 -12 -12
-13 -16 -3 -16 8 0 7 -4 -4 -11 -22 -12 -47 -55 -26 -44 7 3 5 0 -4 -8 -10 -8
-18 -19 -18 -26 0 -6 -7 -11 -16 -11 -12 0 -15 -6 -11 -21 3 -12 3 -18 0 -15
-7 6 -37 -23 -38 -38 -2 -21 -17 -46 -26 -40 -5 3 -6 -2 -3 -10 3 -9 1 -16 -6
-16 -6 0 -8 -4 -5 -10 8 -13 -19 -52 -30 -42 -5 4 -5 1 -1 -6 4 -7 0 -24 -9
-38 -12 -19 -14 -29 -5 -39 8 -10 8 -15 -1 -21 -8 -4 -9 -3 -5 4 4 7 3 12 -3
12 -11 0 -26 -41 -30 -83 -1 -4 -4 -6 -8 -5 -5 2 -9 -1 -11 -7 -2 -5 -9 -13
-17 -18 -7 -4 -12 -18 -10 -32 2 -20 0 -23 -12 -14 -11 9 -12 8 -7 -5 3 -9 1
-16 -5 -16 -9 0 -9 -5 0 -21 9 -17 8 -20 -2 -14 -9 6 -11 3 -6 -8 4 -10 0 -20
-11 -26 -9 -6 -13 -11 -8 -11 5 0 2 -8 -5 -17 -12 -14 -12 -15 0 -9 8 6 7 0
-4 -18 -16 -24 -14 -31 10 -26 5 1 1 -8 -9 -19 -23 -25 -34 -28 -15 -3 13 15
12 16 -3 4 -10 -8 -14 -20 -11 -30 6 -15 5 -16 -13 -2 -18 14 -18 13 1 -9 18
-22 18 -24 2 -18 -10 4 -16 3 -12 -2 3 -5 2 -11 -2 -14 -5 -2 -3 -3 2 -1 6 1
11 -7 11 -17 0 -14 -3 -15 -13 -7 -11 8 -12 7 -7 -7 5 -11 4 -16 -3 -12 -5 3
-10 0 -10 -8 0 -8 5 -11 10 -8 6 4 7 1 3 -6 -5 -7 -15 -10 -23 -6 -13 4 -14 3
-3 -10 7 -8 17 -12 24 -8 6 3 2 -3 -8 -15 -19 -22 -19 -22 0 -23 18 0 18 -1
-1 -8 -11 -5 -24 -6 -28 -4 -5 3 -4 -4 2 -16 9 -17 9 -26 -2 -41 -8 -11 -17
-17 -20 -13 -4 3 -7 1 -7 -5 0 -7 4 -12 8 -12 5 0 9 -7 9 -15 0 -12 -3 -12
-15 -2 -13 10 -14 9 -3 -10 10 -19 8 -25 -8 -40 -19 -16 -20 -18 -3 -37 9 -11
13 -17 7 -14 -5 3 -15 0 -22 -7 -10 -11 -10 -15 0 -18 9 -4 9 -6 -1 -6 -7 -1
-10 -5 -7 -11 3 -5 2 -10 -4 -10 -6 0 -7 -7 -4 -17 5 -12 3 -14 -7 -8 -8 5
-11 4 -6 -3 3 -6 2 -14 -4 -17 -8 -5 -7 -11 1 -21 8 -10 8 -14 0 -14 -13 0
-10 -22 4 -32 6 -4 2 -8 -9 -8 -16 0 -17 -2 -5 -17 13 -15 12 -15 -10 -4 -19
11 -22 11 -15 -1 5 -7 9 -23 10 -35 0 -15 -4 -20 -15 -15 -12 4 -11 0 4 -18
11 -13 14 -20 6 -15 -11 6 -13 4 -7 -10 5 -14 4 -15 -7 -7 -10 8 -13 6 -13 -8
0 -10 5 -16 11 -12 5 3 5 -1 -2 -9 -6 -8 -10 -27 -9 -41 2 -15 0 -25 -4 -23
-14 9 -20 -26 -8 -48 10 -19 9 -20 -4 -9 -13 11 -16 9 -20 -12 -3 -15 -1 -23
4 -19 6 3 6 -2 0 -13 -5 -11 -7 -25 -4 -33 3 -9 0 -11 -8 -6 -8 5 -11 1 -10
-11 4 -38 0 -75 -8 -70 -4 2 -8 -14 -7 -37 0 -23 -3 -45 -8 -48 -5 -3 -9 -31
-10 -62 -1 -30 -6 -55 -11 -54 -6 1 -9 -18 -7 -42 2 -28 -2 -47 -11 -52 -11
-7 -11 -9 1 -9 11 0 11 -3 1 -15 -10 -12 -10 -15 1 -15 9 0 10 -3 3 -8 -6 -4
-11 -25 -10 -47 0 -22 -5 -39 -10 -38 -6 1 -11 -5 -11 -13 0 -8 5 -14 10 -14
6 0 6 -5 0 -12 -5 -7 -9 -72 -9 -145 1 -72 -2 -129 -7 -126 -9 6 -4 -28 7 -46
6 -10 5 -12 -3 -7 -12 8 -9 -33 5 -55 4 -7 3 -9 -3 -6 -6 4 -13 0 -17 -8 -3
-8 -1 -17 4 -20 5 -3 9 -13 9 -23 2 -107 6 -131 18 -120 7 6 23 28 35 49 12
22 25 39 30 39 4 0 7 3 5 8 -1 4 3 8 8 10 9 3 20 24 24 45 2 12 46 52 54 49 5
-1 5 2 2 9 -4 6 2 19 14 30 12 11 21 24 21 29 0 5 10 20 23 32 12 13 23 30 25
38 2 7 9 18 16 24 7 6 30 36 52 66 21 30 47 64 56 74 10 11 18 26 18 33 0 8 7
16 15 19 8 4 15 13 15 21 0 8 5 11 10 8 6 -3 10 1 10 9 0 9 8 24 18 35 9 10
26 31 37 45 11 15 25 33 32 40 7 8 10 16 7 19 -3 3 4 11 16 17 12 6 19 14 16
17 -3 3 6 16 19 29 14 13 25 28 25 33 0 6 8 15 18 20 9 6 13 11 8 11 -5 0 2
10 15 23 13 13 25 29 27 37 2 8 14 25 28 38 13 14 24 31 24 38 0 7 9 16 21 19
11 4 18 9 16 12 -6 5 12 29 50 68 12 13 19 25 17 28 -3 3 4 11 16 17 12 7 19
18 16 26 -3 8 1 14 9 14 8 0 15 4 15 9 0 4 11 20 25 35 13 14 21 26 18 26 -3
0 4 9 17 20 13 11 20 20 16 20 -4 0 -1 6 6 14 7 8 17 11 22 8 5 -3 6 0 3 5 -7
12 27 56 36 47 3 -4 9 5 13 20 3 14 10 26 15 26 5 0 9 7 9 16 0 8 5 12 10 9 6
-3 10 -2 10 3 0 5 15 25 34 44 19 20 33 38 30 41 -3 2 9 16 25 30 16 13 27 28
24 31 -4 3 -1 6 5 6 7 0 12 7 12 16 0 8 5 12 10 9 6 -3 10 -2 10 4 0 6 12 23
28 39 15 15 43 47 62 71 40 50 82 91 92 91 4 0 5 10 3 21 -3 12 -2 19 2 16 3
-4 14 -2 25 4 11 6 18 13 15 15 -7 7 64 79 74 76 5 -1 9 4 9 12 0 7 14 23 30
36 17 13 30 30 30 38 0 9 3 13 6 9 8 -7 53 36 47 46 -2 4 0 7 6 7 5 0 44 33
84 74 41 41 78 72 81 69 3 -4 6 -1 6 6 0 7 17 31 38 52 20 22 59 63 86 92 27
29 45 45 40 37 -5 -9 -1 -7 8 3 10 11 15 24 11 30 -3 5 -2 7 3 4 5 -3 42 25
81 61 39 37 95 87 123 112 29 25 61 55 73 67 11 12 25 20 30 16 6 -3 7 -1 3 5
-4 7 3 17 18 23 14 7 23 16 20 20 -3 5 0 9 5 9 6 0 20 9 31 20 11 11 20 18 20
15 0 -2 16 11 35 30 19 19 39 35 45 35 6 0 8 5 5 10 -3 6 0 10 7 10 7 0 23 12
35 27 13 14 23 23 23 19 0 -4 13 7 30 24 16 16 32 30 34 30 3 0 18 12 34 27
48 46 70 62 76 56 3 -4 6 1 6 9 0 15 26 33 43 29 5 -1 5 3 2 9 -4 7 2 14 14
17 12 3 21 12 21 20 0 8 4 12 8 9 5 -3 21 8 36 25 15 16 33 26 39 22 7 -3 9
-3 5 2 -9 9 42 51 57 47 5 -2 7 -1 3 3 -6 7 53 65 66 65 4 0 20 14 36 30 17
17 30 28 30 24 0 -4 8 2 18 12 9 11 38 35 63 54 26 19 45 38 42 43 -4 6 20 11
40 8 4 0 6 3 5 7 -3 10 70 81 76 75 2 -2 25 17 51 43 26 26 45 40 41 33 -4 -8
2 -3 13 10 12 13 21 19 21 15 0 -5 5 -1 11 9 6 9 14 15 20 12 5 -4 9 1 9 9 0
9 11 18 25 22 14 3 25 12 25 20 0 8 4 14 9 14 6 0 24 13 42 30 18 16 37 26 43
23 6 -3 8 -3 4 2 -8 9 34 45 52 45 6 0 8 5 5 10 -3 6 -1 10 5 10 16 0 40 26
32 35 -4 4 -2 5 5 3 11 -3 53 26 94 64 9 9 20 14 23 11 3 -4 6 -1 6 6 0 7 5 9
12 5 6 -4 8 -3 5 3 -4 6 9 21 28 34 19 13 35 28 35 32 0 5 5 5 10 2 6 -3 10
-2 10 4 0 5 9 13 20 16 11 4 18 10 15 15 -3 5 9 17 27 26 18 9 35 20 38 23 3
3 30 26 60 50 30 25 61 51 68 60 6 8 12 12 12 8 0 -7 41 26 71 57 11 11 19 17
19 13 0 -4 11 3 25 15 57 51 64 56 69 51 3 -4 6 -1 6 6 0 6 21 25 47 41 26 17
43 30 37 30 -5 0 6 10 23 21 18 12 31 25 28 29 -3 5 4 7 16 5 15 -3 19 0 15
11 -3 9 -2 12 4 9 6 -3 13 1 16 9 3 9 9 14 13 12 4 -3 18 5 31 16 14 11 19 16
11 12 -9 -5 -12 -3 -7 4 4 7 11 12 16 12 6 0 19 8 30 17 11 10 23 17 25 16 3
-2 20 14 40 34 19 20 35 33 35 30 0 -4 8 1 18 11 34 31 62 52 71 52 5 0 11 7
15 15 3 8 13 15 22 15 10 0 14 3 11 6 -3 4 13 20 36 36 23 17 48 37 55 46 6 9
12 13 12 9 0 -6 39 25 76 61 7 6 15 12 18 12 6 0 37 24 64 50 9 8 19 15 24 15
4 0 18 12 31 26 12 15 26 26 30 27 5 0 27 16 49 36 22 20 42 36 45 36 12 0 52
38 46 44 -3 3 1 6 10 6 9 0 30 14 47 30 17 17 36 27 42 24 6 -4 8 -3 5 3 -4 6
5 19 20 29 33 21 43 29 89 72 19 18 40 30 46 26 7 -4 8 -3 4 4 -4 7 -3 12 2
12 5 0 28 16 50 36 22 19 44 35 47 34 4 -1 16 10 29 24 12 14 26 26 32 26 5 0
22 14 37 31 15 17 27 29 27 26 0 -6 30 18 87 71 20 17 40 32 44 32 5 0 9 7 9
15 0 8 5 15 11 15 5 0 7 -6 4 -12 -4 -7 1 -4 9 6 9 11 16 23 16 26 0 4 12 12
26 18 14 7 22 17 19 22 -3 6 0 10 8 10 8 0 17 7 21 15 3 8 12 15 21 15 8 0 14
3 13 8 -1 4 14 24 35 45 20 20 37 35 37 32 0 -3 6 0 14 7 8 7 12 16 9 21 -2 4
3 7 12 7 9 0 13 5 10 10 -3 6 0 10 7 10 8 0 31 20 53 44 22 25 43 42 49 39 5
-3 6 -2 3 4 -3 5 2 17 11 26 9 8 23 23 30 32 7 8 18 12 24 9 7 -4 8 -2 4 4 -4
6 13 32 39 57 25 25 45 51 45 57 0 6 3 9 6 6 9 -10 50 36 45 51 -2 8 0 12 5 9
10 -5 45 27 37 35 -2 3 5 10 16 17 12 6 21 18 21 26 0 8 3 13 8 11 8 -5 33 18
27 25 -3 3 9 17 25 33 17 16 30 35 30 42 0 8 5 11 10 8 6 -3 10 -1 10 6 0 6
10 20 22 30 11 11 18 19 15 19 -5 0 19 31 54 69 8 10 13 23 11 29 -2 7 1 12 7
12 6 0 11 7 11 16 0 8 4 13 9 10 8 -5 23 19 18 29 -1 2 7 11 18 19 11 9 16 16
11 16 -5 0 4 12 20 26 16 15 23 23 15 19 -16 -9 17 45 38 61 8 6 11 18 8 28
-4 9 -3 15 2 12 4 -3 14 7 22 22 7 15 21 38 30 52 9 14 18 30 19 35 1 6 12 28
23 50 12 22 21 42 22 45 0 3 6 15 13 26 6 12 8 24 5 28 -3 3 -1 6 5 6 7 0 12
9 12 19 0 11 5 23 10 26 6 4 8 10 5 14 -2 5 2 16 9 27 8 10 12 24 9 30 -2 7 0
15 6 19 6 3 11 17 11 30 0 13 5 27 10 30 5 3 10 19 10 34 0 15 6 33 13 40 10
11 9 12 -3 6 -13 -7 -13 -6 -2 7 7 8 10 22 7 30 -4 9 1 18 11 22 12 5 14 9 5
20 -6 7 -8 16 -4 20 10 10 11 228 1 249 -6 11 -5 17 2 17 6 0 8 5 5 10 -4 6
-10 8 -14 6 -4 -3 -6 17 -5 44 1 27 -3 47 -7 44 -8 -4 -13 37 -12 83 1 7 -3
10 -8 7 -5 -3 -9 9 -9 25 0 17 -5 31 -11 31 -6 0 -9 9 -6 20 3 11 1 21 -4 21
-5 1 -13 2 -18 3 -5 0 -13 5 -18 10 -4 5 -3 7 2 3 6 -3 17 -2 25 4 12 7 12 9
-3 9 -10 0 -15 5 -12 10 3 6 2 10 -2 10 -5 0 -10 10 -10 22 -1 13 -7 24 -13
26 -5 2 -10 12 -10 23 0 11 -7 19 -17 19 -15 0 -16 2 -3 10 13 8 12 10 -2 10
-11 0 -18 8 -18 21 0 11 -4 17 -10 14 -6 -3 -7 1 -4 9 4 11 0 16 -12 16 -16 0
-17 2 -4 10 13 9 13 10 0 11 -8 1 -19 1 -24 0 -5 -1 -6 5 -3 13 3 8 3 17 -1
21 -4 4 -7 12 -7 18 -1 7 -7 11 -14 9 -7 -1 -15 7 -18 18 -3 11 -10 20 -17 20
-6 0 -4 5 4 10 13 8 12 10 -3 10 -10 0 -22 12 -27 26 -6 16 -16 24 -24 21 -10
-4 -12 0 -8 15 3 12 1 19 -4 15 -6 -3 -16 -2 -24 4 -11 6 -11 9 -2 9 7 0 -14
27 -47 60 -32 32 -57 61 -54 64 2 2 -5 7 -16 11 -12 3 -21 13 -21 21 0 8 -3
14 -8 14 -4 0 -19 11 -34 24 -14 14 -29 22 -33 18 -4 -4 -6 -2 -5 3 5 22 -1
35 -14 35 -8 0 -36 22 -63 48 -27 27 -56 51 -66 55 -9 3 -17 14 -17 22 0 9 -4
14 -9 10 -6 -3 -14 1 -18 10 -13 23 -75 65 -86 58 -6 -3 -7 -2 -4 4 3 5 -4 16
-15 24 -12 8 -34 26 -49 41 -15 15 -30 24 -33 21 -3 -3 -8 2 -12 11 -3 9 -12
16 -20 16 -8 0 -14 5 -14 10 0 6 -6 10 -14 10 -8 0 -17 7 -20 16 -4 9 -9 14
-12 11 -4 -3 -20 7 -38 23 -17 17 -37 30 -43 30 -7 0 -13 5 -13 10 0 6 -7 10
-16 10 -8 0 -12 5 -9 10 3 6 -1 10 -11 10 -9 0 -25 9 -35 21 -9 11 -20 20 -24
19 -4 -1 -17 7 -30 18 -13 11 -26 18 -29 15 -3 -4 -6 -1 -6 6 0 7 -4 10 -8 7
-5 -3 -15 4 -22 15 -8 10 -20 19 -27 19 -7 0 -13 5 -13 11 0 5 -4 8 -8 5 -5
-3 -18 3 -28 12 -21 20 -54 36 -67 33 -5 -1 -6 2 -4 6 8 13 -18 33 -44 33 -5
0 -7 5 -3 12 4 6 3 8 -4 4 -6 -3 -16 0 -24 7 -7 8 -30 22 -51 32 -20 9 -37 22
-37 27 0 5 -4 6 -10 3 -5 -3 -10 -1 -10 4 0 6 -9 11 -21 11 -11 0 -17 5 -14
10 3 6 -3 10 -14 10 -11 0 -24 6 -28 13 -11 16 -49 37 -68 37 -9 0 -14 4 -11
9 6 9 -14 21 -42 27 -8 1 -21 9 -30 16 -10 8 -30 20 -47 28 -16 8 -32 17 -35
20 -8 8 -65 32 -67 28 -1 -1 -9 6 -17 17 -9 11 -16 16 -16 10 0 -6 -3 -6 -8 1
-4 6 -28 21 -54 33 -27 13 -48 27 -48 32 0 6 -4 7 -10 4 -5 -3 -10 -1 -10 4 0
6 -7 11 -16 11 -9 0 -23 8 -31 18 -8 9 -11 10 -7 2 5 -8 -4 -5 -20 8 -16 12
-35 22 -42 22 -7 0 -17 6 -21 13 -11 16 -49 37 -70 37 -9 0 -14 3 -10 6 7 7
-60 46 -80 47 -7 0 -10 4 -7 9 3 4 -2 8 -11 8 -9 0 -13 5 -10 10 4 6 3 9 -2 8
-17 -6 -73 25 -66 36 3 6 3 8 -1 4 -5 -4 -26 4 -47 18 -21 13 -43 24 -49 24
-5 0 -10 5 -10 10 0 6 -7 10 -15 10 -9 0 -18 7 -21 15 -4 8 -10 13 -14 10 -4
-3 -19 4 -33 15 -14 11 -30 20 -36 20 -6 0 -11 5 -11 11 0 5 -5 7 -10 4 -6 -3
-13 1 -16 9 -3 9 -15 16 -26 16 -10 0 -16 5 -13 10 3 6 -1 10 -10 10 -9 0 -21
5 -28 10 -21 19 -117 79 -117 74 0 -3 -10 4 -22 16 -12 11 -28 20 -35 20 -7 0
-13 4 -13 9 0 5 -15 16 -32 25 -18 9 -46 26 -63 37 -16 10 -38 22 -48 26 -15
4 -16 8 -5 15 9 7 7 9 -8 5 -13 -3 -25 3 -33 14 -6 11 -18 19 -27 19 -9 0 -12
5 -8 11 4 7 1 10 -7 7 -8 -3 -19 0 -25 6 -20 20 -62 49 -68 47 -10 -2 -34 23
-29 31 2 4 -3 5 -11 2 -9 -3 -16 -1 -16 5 0 6 -7 11 -15 11 -9 0 -18 7 -21 15
-3 8 -21 20 -39 27 -19 6 -32 15 -30 18 5 8 -66 45 -80 41 -5 -1 -7 0 -3 4 9
10 -30 46 -53 48 -10 1 -22 9 -25 19 -3 10 -12 18 -19 18 -8 0 -25 11 -39 25
-14 14 -30 25 -36 25 -6 0 -21 11 -34 25 -13 13 -25 23 -28 20 -2 -2 -18 8
-34 23 -17 15 -42 33 -57 41 -15 8 -27 18 -27 23 0 5 -4 6 -10 3 -5 -3 -10 1
-10 10 0 9 -4 13 -10 10 -5 -3 -10 -1 -10 4 0 6 -6 11 -14 11 -8 0 -21 9 -29
20 -8 11 -16 18 -19 15 -2 -3 -21 10 -40 28 -39 35 -43 37 -111 83 -26 17 -44
34 -40 38 3 3 -1 6 -11 6 -9 0 -19 7 -22 15 -4 8 -11 15 -16 15 -6 0 -23 14
-39 31 -16 17 -29 26 -29 20 0 -7 -12 1 -26 16 -15 15 -30 27 -35 26 -5 -2 -9
3 -9 11 0 8 -8 17 -18 20 -10 3 -38 24 -62 46 -24 21 -46 38 -49 36 -9 -6 -31
21 -24 28 4 3 2 6 -3 6 -6 0 -20 9 -32 20 -12 12 -22 18 -22 15 0 -3 -13 7
-28 22 -42 41 -71 63 -83 63 -5 0 -8 3 -6 8 3 4 -1 13 -9 20 -8 7 -14 9 -14 5
0 -4 -13 7 -30 25 -16 18 -30 31 -30 27 0 -3 -6 0 -14 7 -8 7 -12 16 -9 21 2
4 1 6 -4 5 -12 -4 -64 38 -56 46 3 3 -1 6 -9 6 -9 0 -23 11 -32 25 -9 14 -23
25 -32 25 -8 0 -12 5 -9 10 3 6 1 10 -5 10 -7 0 -25 14 -40 30 -15 17 -33 30
-38 30 -6 0 -14 9 -17 20 -4 11 -11 18 -16 15 -5 -4 -9 1 -9 9 0 9 -6 16 -12
16 -7 0 -32 20 -55 45 -24 24 -43 42 -43 39 0 -3 -38 33 -85 80 -47 47 -91 86
-97 86 -6 0 -9 3 -5 6 6 7 -29 44 -42 44 -5 0 -13 9 -16 20 -3 11 -13 20 -21
20 -8 0 -13 3 -12 8 2 4 -1 9 -7 11 -15 7 -50 54 -47 63 1 5 -2 7 -6 6 -11 -4
-152 139 -145 145 2 3 -5 8 -16 12 -12 3 -19 10 -16 15 3 5 -4 12 -16 15 -11
4 -18 9 -15 12 3 3 -6 16 -19 29 -14 13 -25 26 -25 29 0 12 -28 34 -34 28 -3
-4 -6 -2 -6 3 0 6 -16 27 -35 48 -19 21 -32 43 -28 50 3 6 3 8 -1 5 -7 -7 -56
36 -56 48 0 4 -11 18 -25 32 -62 66 -95 104 -95 112 0 4 -13 21 -30 37 -16 17
-30 36 -30 42 0 6 -4 8 -10 5 -5 -3 -10 0 -10 7 0 7 -11 25 -24 40 -14 14 -22
28 -20 31 3 3 -4 8 -15 12 -12 3 -19 10 -16 15 3 4 -8 21 -25 37 -16 15 -30
33 -30 38 0 6 -9 18 -20 28 -12 10 -18 22 -15 27 3 6 -2 10 -11 10 -10 0 -15
3 -11 6 3 4 -1 13 -9 21 -8 8 -11 19 -8 25 4 6 3 9 -2 6 -11 -7 -35 17 -27 26
3 3 -2 8 -11 12 -9 3 -13 10 -11 15 3 4 -3 14 -15 21 -11 7 -20 21 -20 30 0
10 -4 18 -10 18 -5 0 -12 11 -16 25 -3 14 -10 22 -15 19 -5 -3 -9 2 -9 11 0
10 -5 13 -12 9 -6 -4 -8 -3 -5 3 4 6 -3 23 -15 39 -13 15 -16 24 -8 19 8 -5 3
4 -12 20 -16 15 -28 34 -28 42 0 8 -5 11 -12 7 -8 -5 -9 -2 -5 9 4 10 -1 22
-11 29 -10 7 -26 24 -35 38 -9 13 -17 21 -17 17 0 -4 -11 3 -24 15 -13 13 -21
27 -18 32 3 5 0 6 -5 3 -6 -4 -24 5 -41 21 -46 42 -72 62 -79 62 -3 0 -19 13
-34 30 l-29 30 -1 -30z m1306 -9969 c3 -5 2 -12 -3 -15 -5 -3 -9 1 -9 9 0 17
3 19 12 6z m-40 -71 c3 -5 1 -10 -4 -10 -6 0 -11 5 -11 10 0 6 2 10 4 10 3 0
8 -4 11 -10z m-135 -154 c0 -3 -4 -8 -10 -11 -5 -3 -10 -1 -10 4 0 6 5 11 10
11 6 0 10 -2 10 -4z m-69 -73 c11 -15 11 -16 -1 -6 -11 10 -17 10 -29 0 -14
-11 -14 -10 -2 6 7 9 15 17 16 17 1 0 9 -8 16 -17z m-37 -51 c3 -5 -1 -9 -9
-9 -8 0 -12 4 -9 9 3 4 7 8 9 8 2 0 6 -4 9 -8z m1 -31 c3 -5 2 -12 -3 -15 -5
-3 -9 1 -9 9 0 17 3 19 12 6z m-21 -49 c3 -5 -1 -9 -9 -9 -8 0 -12 4 -9 9 3 4
7 8 9 8 2 0 6 -4 9 -8z m-76 -63 c-3 -8 -7 -3 -11 10 -4 17 -3 21 5 13 5 -5 8
-16 6 -23z m-21 -14 c0 -8 -4 -12 -9 -9 -5 3 -6 10 -3 15 9 13 12 11 12 -6z
m-26 -38 c-10 -9 -11 -8 -5 6 3 10 9 15 12 12 3 -3 0 -11 -7 -18z m4 -47 c3
-5 1 -10 -4 -10 -6 0 -11 5 -11 10 0 6 2 10 4 10 3 0 8 -4 11 -10z"/>
<path d="M7420 4489 c0 -5 5 -7 10 -4 6 3 10 8 10 11 0 2 -4 4 -10 4 -5 0 -10
-5 -10 -11z"/>
</g>
</svg>
